<?xml version="1.0" ?><svg xmlns="http://www.w3.org/2000/svg" xmlns:xlink="http://www.w3.org/1999/xlink" version="1.1" id="Layer_1" viewBox="0 0 1500 1500" style="enable-background:new 0 0 1500 1500;" xml:space="preserve"><style type="text/css">
	.st0{fill:none;stroke:#000000;stroke-width:5;stroke-linecap:round;stroke-linejoin:round;stroke-miterlimit:10;}
	.st1{fill:#40C5FF;stroke:#000000;stroke-width:5;stroke-miterlimit:10;}
	.st2{fill:#F9F9F9;stroke:#000000;stroke-width:5;stroke-linecap:round;stroke-linejoin:round;stroke-miterlimit:10;}
	.st3{fill:#EFEEE7;stroke:#000000;stroke-width:5;stroke-linecap:round;stroke-linejoin:round;stroke-miterlimit:10;}
	.st4{fill:#F8D605;stroke:#000000;stroke-width:5;stroke-linecap:round;stroke-linejoin:round;stroke-miterlimit:10;}
</style><g id="Layer_1_1_"><path d="M1360.99,1254.3H214.01c-4.98,0-9.01-4.03-9.01-9.01l0,0c0-4.98,4.03-9.01,9.01-9.01h1146.98c4.98,0,9.01,4.03,9.01,9.01   l0,0C1370,1250.27,1365.97,1254.3,1360.99,1254.3z"/><line class="st0" x1="687.91" y1="604.92" x2="764.38" y2="666.78"/><line class="st0" x1="727.45" y1="596.5" x2="803.92" y2="658.36"/><path class="st1" d="M1201.32,1236.05H353.69c-50.84,0-92.05-41.21-92.05-92.05l0,0c0-50.84,41.21-92.05,92.05-92.05h847.63   c50.84,0,92.05,41.21,92.05,92.05l0,0C1293.37,1194.84,1252.16,1236.05,1201.32,1236.05z"/><circle class="st2" cx="359.96" cy="1144" r="71.13"/><circle class="st2" cx="562.37" cy="1144" r="31.38"/><circle class="st2" cx="712.88" cy="1144.37" r="31.38"/><circle class="st3" cx="859.83" cy="1144.37" r="31.38"/><circle class="st2" cx="999.88" cy="1144.37" r="31.38"/><circle class="st2" cx="1188.77" cy="1144" r="71.13"/><line class="st0" x1="1106.75" y1="332.52" x2="1106.75" y2="387.12"/><line class="st0" x1="1134.05" y1="359.82" x2="1079.45" y2="359.82"/></g><g id="boxes"><rect x="401.7" y="901.33" class="st4" width="158.99" height="150.62"/><rect x="608.05" y="901.33" class="st4" width="158.99" height="150.62"/><rect x="810.63" y="901.33" class="st4" width="158.99" height="150.62"/><rect x="1014.03" y="901.33" class="st4" width="158.99" height="150.62"/></g><g id="robot"><g><path class="st2" d="M1003.93,1236.21H706.91V1064.2c0-31.42,25.47-56.9,56.9-56.9h183.24c31.42,0,56.9,25.47,56.9,56.9v172.01    H1003.93z"/><polygon class="st2" points="1002.04,746.47 789.94,1006.54 932.32,1006.54 1133.72,755.08   "/><polygon class="st2" points="807.49,351.96 1087.36,596.28 1016.28,670.69 746.41,429.7   "/><path d="M656.5,403.13H354.67c-11.28,0-20.43-9.15-20.43-20.43v-61.03c0-11.28,9.15-20.43,20.43-20.43H656.5    c11.28,0,20.43,9.15,20.43,20.43v61.03C676.93,393.98,667.79,403.13,656.5,403.13z"/><path class="st2" d="M512.72,474.99h-76.8c-18.11,0-32.79-14.68-32.79-32.79v-41.64H545.5v41.64    C545.51,460.31,530.83,474.99,512.72,474.99z"/><circle class="st2" cx="1104.97" cy="707.54" r="130.01"/><circle class="st2" cx="728.96" cy="351.94" r="108.04"/><circle class="st2" cx="1104.97" cy="707.54" r="83.13"/><circle class="st2" cx="728.96" cy="351.94" r="71.51"/><path d="M575.82,869.91c19.62-23.04,31.23-51.03,31.23-75.78c0-72.22-60.06-130.96-132.27-130.27    c-71.76,0.68-129.72,59.07-129.72,130.99c0,34.46,13.3,55.96,35.05,79.35c2.23,2.39,6.19,0.39,5.54-2.81    c-4.44-22.18-12.58-45.02-8.9-75.89c5.72-47.92,33.77-86.14,99.68-86.14c65.14,0,95,38.33,102.14,84.91    c4.62,30.13-3.61,50.24-8.39,72.88C569.48,870.43,573.64,872.46,575.82,869.91z"/><rect x="438.25" y="475.52" class="st2" width="72.14" height="131.74"/><circle class="st2" cx="475.42" cy="664.49" r="68.04"/><path class="st0" d="M932.15,1046.13c38.45,3.32,37.52,11.17,37.52,144.71"/><circle class="st2" cx="475.42" cy="664.49" r="43.12"/></g></g></svg>